<?xml version="1.0" encoding="UTF-8"?>
<svg version="1.1" viewBox="0 0 270 180" xmlns="http://www.w3.org/2000/svg">
 <g transform="translate(0 -872.36)">
  <rect y="872.36" width="270" height="180" fill="#039"/>
  <path transform="translate(0 812.36)" d="m135 80 2.2453 6.9096 7.2652 2.75e-4 -5.8775 4.2706 2.2448 6.9097l-5.8778-4.2702-5.8778 4.2702 2.2448-6.9097-5.8775-4.2706 7.2652-2.75e-4z" fill="#fc0"/>
  <path transform="translate(52 902.36)" d="m135 80 2.2453 6.9096 7.2652 2.75e-4 -5.8775 4.2706 2.2448 6.9097l-5.8778-4.2702-5.8778 4.2702 2.2448-6.9097-5.8775-4.2706 7.2652-2.75e-4z" fill="#fc0"/>
  <path transform="translate(0 932.36)" d="m135 80 2.2453 6.9096 7.2652 2.75e-4 -5.8775 4.2706 2.2448 6.9097l-5.8778-4.2702-5.8778 4.2702 2.2448-6.9097-5.8775-4.2706 7.2652-2.75e-4z" fill="#fc0"/>
  <path transform="translate(60 872.36)" d="m135 80 2.2453 6.9096 7.2652 2.75e-4 -5.8775 4.2706 2.2448 6.9097l-5.8778-4.2702-5.8778 4.2702 2.2448-6.9097-5.8775-4.2706 7.2652-2.75e-4z" fill="#fc0"/>
  <path transform="translate(-60 872.36)" d="m135 80 2.2453 6.9096 7.2652 2.75e-4 -5.8775 4.2706 2.2448 6.9097l-5.8778-4.2702-5.8778 4.2702 2.2448-6.9097-5.8775-4.2706 7.2652-2.75e-4z" fill="#fc0"/>
  <path transform="translate(30 820.36)" d="m135 80 2.2453 6.9096 7.2652 2.75e-4 -5.8775 4.2706 2.2448 6.9097l-5.8778-4.2702-5.8778 4.2702 2.2448-6.9097-5.8775-4.2706 7.2652-2.75e-4z" fill="#fc0"/>
  <path transform="translate(-30 820.36)" d="m135 80 2.2453 6.9096 7.2652 2.75e-4 -5.8775 4.2706 2.2448 6.9097l-5.8778-4.2702-5.8778 4.2702 2.2448-6.9097-5.8775-4.2706 7.2652-2.75e-4z" fill="#fc0"/>
  <path transform="translate(-30 924.36)" d="m135 80 2.2453 6.9096 7.2652 2.75e-4 -5.8775 4.2706 2.2448 6.9097l-5.8778-4.2702-5.8778 4.2702 2.2448-6.9097-5.8775-4.2706 7.2652-2.75e-4z" fill="#fc0"/>
  <path transform="translate(30 924.36)" d="m135 80 2.2453 6.9096 7.2652 2.75e-4 -5.8775 4.2706 2.2448 6.9097l-5.8778-4.2702-5.8778 4.2702 2.2448-6.9097-5.8775-4.2706 7.2652-2.75e-4z" fill="#fc0"/>
  <path transform="translate(52 842.36)" d="m135 80 2.2453 6.9096 7.2652 2.75e-4 -5.8775 4.2706 2.2448 6.9097l-5.8778-4.2702-5.8778 4.2702 2.2448-6.9097-5.8775-4.2706 7.2652-2.75e-4z" fill="#fc0"/>
  <path transform="translate(-52 842.36)" d="m135 80 2.2453 6.9096 7.2652 2.75e-4 -5.8775 4.2706 2.2448 6.9097l-5.8778-4.2702-5.8778 4.2702 2.2448-6.9097-5.8775-4.2706 7.2652-2.75e-4z" fill="#fc0"/>
  <path transform="translate(-52 902.36)" d="m135 80 2.2453 6.9096 7.2652 2.75e-4 -5.8775 4.2706 2.2448 6.9097l-5.8778-4.2702-5.8778 4.2702 2.2448-6.9097-5.8775-4.2706 7.2652-2.75e-4z" fill="#fc0"/>
 </g>
</svg>
